<svg width="174" height="100" viewBox="0 0 174 100" fill="none" xmlns="http://www.w3.org/2000/svg">
<path fill-rule="evenodd" clip-rule="evenodd" d="M89.6628 45.2251L85.2159 45.2251L81.8021 39.372L79.8366 39.372L79.8366 45.2263L75.6992 45.2263L75.6992 27.4108L82.9396 27.4108C84.672 27.4108 86.1203 27.9966 87.3356 29.1914C88.5508 30.3884 89.1456 31.8141 89.1456 33.5189C89.1456 35.6821 87.8005 37.6672 85.8107 38.685L89.6628 45.2263L89.6628 45.2251ZM82.9397 31.2277L79.8367 31.2277L79.8367 35.8091L82.9397 35.8091C84.0784 35.8091 85.0084 34.8166 85.0084 33.5184C85.0084 32.2203 84.0784 31.2277 82.9397 31.2277ZM99.9363 33.698L99.9363 32.5009L103.815 32.5009L103.815 45.225L99.9363 45.225L99.9363 44.0302C99.0319 45.0733 97.7378 45.5811 96.0831 45.5811C94.3762 45.5811 92.929 44.9458 91.7126 43.6477C90.4974 42.3495 89.9037 40.747 89.9037 38.863C89.9037 36.9789 90.4974 35.4016 91.7126 34.1046C92.9279 32.8065 94.3762 32.1448 96.0831 32.1448C97.7378 32.1448 99.0307 32.6537 99.9363 33.6968L99.9363 33.698ZM94.635 41.1288C95.2032 41.6883 95.9535 41.9686 96.8591 41.9686C97.7636 41.9686 98.5138 41.6883 99.0832 41.1288C99.6513 40.5694 99.9366 39.8054 99.9366 38.8634C99.9366 37.9214 99.6513 37.1586 99.0832 36.5991C98.515 36.0385 97.7636 35.7594 96.8591 35.7594C95.9546 35.7594 95.2044 36.0385 94.635 36.598C94.0668 37.1586 93.7816 37.9225 93.7816 38.8634C93.7816 39.8054 94.0668 40.5694 94.635 41.1288ZM115.768 33.697L115.768 27.4108L119.647 27.4108L119.647 45.2263L115.768 45.2263L115.768 44.0304C114.864 45.0735 113.571 45.5813 111.916 45.5813C110.209 45.5813 108.762 44.946 107.546 43.6478C106.33 42.3497 105.737 40.7471 105.737 38.8631C105.737 36.9791 106.33 35.4018 107.546 34.1048C108.761 32.8067 110.209 32.1449 111.916 32.1449C113.571 32.1449 114.864 32.6539 115.768 33.697ZM110.467 41.1288C111.036 41.6883 111.786 41.9686 112.692 41.9686C113.596 41.9686 114.346 41.6883 114.914 41.1288C115.484 40.5694 115.768 39.8054 115.768 38.8634C115.768 37.9214 115.484 37.1586 114.914 36.5991C114.346 36.0385 113.596 35.7594 112.692 35.7594C111.787 35.7594 111.037 36.0385 110.467 36.598C109.899 37.1586 109.614 37.9225 109.614 38.8634C109.614 39.8054 109.898 40.5694 110.467 41.1288ZM125.783 30.7205C124.879 31.6096 123.43 31.6096 122.5 30.7205C121.595 29.8037 121.595 28.3769 122.5 27.4877C123.43 26.571 124.878 26.571 125.783 27.4877C126.713 28.3781 126.713 29.8037 125.783 30.7193L125.783 30.7205ZM126.092 45.2262L122.214 45.2262L122.214 32.501L126.092 32.501L126.092 45.2251L126.092 45.2262ZM136.237 32.5011L136.237 36.1658L133.574 36.1658L133.574 40.6702C133.574 41.688 134.351 41.8661 136.237 41.765L136.237 45.2263C133.781 45.4802 132.074 45.2516 131.118 44.5393C130.161 43.8006 129.695 42.5289 129.695 40.6702L129.695 36.1658L127.626 36.1658L127.626 32.5011L129.695 32.5011L129.695 30.0829L133.574 28.9375L133.574 32.5011L136.237 32.5011ZM144.131 40.2885L146.561 32.4997L150.698 32.4997L146.277 44.8435C144.829 48.8402 142.554 50.4944 138.907 50.3164L138.907 46.7528C140.691 46.7528 141.545 46.1933 142.14 44.6402L136.993 32.5009L141.261 32.5009L144.131 40.2885Z" fill="#02072F"/>
<path opacity="0.9" fill-rule="evenodd" clip-rule="evenodd" d="M35.2008 81.9821C34.8424 82.0224 34.506 82.0426 34.1917 82.0426C33.3078 82.0426 32.5197 81.8913 31.8273 81.5888C31.1349 81.2863 30.5505 80.8779 30.0742 80.3637C29.5979 79.8494 29.2345 79.252 28.984 78.5713C28.7336 77.8907 28.6084 77.1722 28.6084 76.416C28.6084 75.6194 28.7434 74.8782 29.0135 74.1926C29.2836 73.5069 29.6568 72.912 30.1331 72.4078C30.6094 71.9036 31.1815 71.5078 31.8494 71.2205C32.5172 70.9331 33.2489 70.7894 34.0444 70.7894C35.0069 70.7894 35.7926 70.9129 36.4015 71.16C37.0104 71.407 37.5211 71.7473 37.9336 72.1809L36.9318 73.2851C36.4997 72.8615 36.043 72.5666 35.5618 72.4002C35.0805 72.2339 34.5747 72.1507 34.0444 72.1507C33.4453 72.1507 32.9051 72.2641 32.4239 72.491C31.9427 72.7179 31.5302 73.0229 31.1864 73.4061C30.8427 73.7892 30.5775 74.2405 30.3909 74.7598C30.2043 75.2791 30.111 75.8311 30.111 76.416C30.111 77.021 30.2141 77.5831 30.4204 78.1024C30.6266 78.6217 30.9114 79.073 31.2748 79.4561C31.6382 79.8393 32.0654 80.1393 32.5565 80.3561C33.0476 80.5729 33.5828 80.6813 34.1623 80.6813C34.6631 80.6813 35.137 80.6334 35.5839 80.5376C36.0307 80.4418 36.4113 80.3032 36.7256 80.1217L36.7256 77.142L34.4127 77.142L34.4127 75.7807L38.1398 75.7807L38.1398 81.0594C37.8845 81.2208 37.5948 81.3619 37.2707 81.4829C36.9466 81.6039 36.6102 81.7073 36.2615 81.793C35.9129 81.8787 35.5593 81.9417 35.2008 81.9821ZM18.8979 81.3172C18.1859 81.6197 17.3633 81.771 16.4303 81.771L13.0273 81.771L13.0273 71.0623L16.666 71.0623C17.4026 71.0623 18.0484 71.148 18.6033 71.3194C19.1582 71.4908 19.6394 71.7202 20.047 72.0076C20.4546 72.295 20.7934 72.6252 21.0635 72.9983C21.3336 73.3714 21.5472 73.7546 21.7043 74.1478C21.8615 74.5411 21.9744 74.9344 22.0431 75.3276C22.1119 75.7209 22.1463 76.0839 22.1463 76.4166C22.1463 77.1023 22.0235 77.7653 21.778 78.4056C21.5324 79.0459 21.1691 79.6156 20.6878 80.1147C20.2066 80.6139 19.6099 81.0147 18.8979 81.3172ZM14.4411 80.4094L16.2236 80.4094C16.8227 80.4094 17.3899 80.3262 17.9251 80.1598C18.4604 79.9934 18.9293 79.7439 19.332 79.4111C19.7347 79.0784 20.0539 78.6624 20.2896 78.1633C20.5253 77.6642 20.6431 77.0818 20.6431 76.4163C20.6431 76.0735 20.5891 75.6727 20.4811 75.2139C20.3731 74.7551 20.1693 74.319 19.8697 73.9055C19.5702 73.4921 19.1552 73.1417 18.6249 72.8543C18.0945 72.567 17.4071 72.4233 16.5624 72.4233L14.4411 72.4233L14.4411 80.4094ZM26.0846 81.7718L26.0846 71.0632L24.6703 71.0632L24.6703 81.7718L26.0846 81.7718ZM42.6233 81.7718L42.6233 71.0632L41.2091 71.0632L41.2091 81.7718L42.6233 81.7718ZM49.3898 72.4244L49.3898 81.7718L47.9755 81.7718L47.9755 72.4244L44.6167 72.4244L44.6167 71.0632L52.7486 71.0632L52.7486 72.4244L49.3898 72.4244ZM53.7114 81.7718L54.7426 79.1249L59.7073 79.1249L60.7532 81.7718L62.4032 81.7718L57.9394 71.0632L56.6578 71.0632L52.0614 81.7718L53.7114 81.7718ZM55.2436 77.8532L59.1917 77.8532L57.2472 72.9375L57.2177 72.9375L55.2436 77.8532ZM70.4518 81.7718L70.4518 80.4106L65.664 80.4106L65.664 71.0632L64.2497 71.0632L64.2497 81.7718L70.4518 81.7718ZM80.8624 81.8157C80.4204 81.9669 79.949 82.0425 79.4481 82.0425C78.7803 82.0425 78.1468 81.9215 77.5477 81.6795C76.9486 81.4375 76.4723 81.0645 76.1187 80.5603L77.2825 79.5318C77.5379 79.925 77.8645 80.2149 78.2622 80.4015C78.66 80.588 79.07 80.6813 79.4923 80.6813C79.728 80.6813 79.9686 80.6435 80.2142 80.5678C80.4597 80.4922 80.6831 80.3788 80.8845 80.2275C81.0858 80.0763 81.2503 79.8897 81.378 79.6679C81.5057 79.4461 81.5695 79.1889 81.5695 78.8965C81.5695 78.4831 81.4418 78.168 81.1865 77.9512C80.9311 77.7344 80.6144 77.5529 80.2363 77.4067C79.8582 77.2605 79.4457 77.1193 78.9988 76.9832C78.5519 76.847 78.1395 76.658 77.7613 76.416C77.3832 76.174 77.0665 75.8488 76.8111 75.4404C76.5558 75.032 76.4281 74.4799 76.4281 73.7842C76.4281 73.4716 76.4944 73.1388 76.627 72.7859C76.7596 72.433 76.9683 72.1103 77.2531 71.8179C77.5379 71.5255 77.9037 71.281 78.3506 71.0843C78.7975 70.8877 79.3352 70.7894 79.9637 70.7894C80.5334 70.7894 81.0784 70.8701 81.599 71.0314C82.1195 71.1927 82.5762 71.5204 82.969 72.0145L81.8199 73.0884C81.6432 72.8061 81.3927 72.5792 81.0686 72.4078C80.7445 72.2364 80.3762 72.1507 79.9637 72.1507C79.5709 72.1507 79.2443 72.2036 78.9841 72.3095C78.7238 72.4153 78.5151 72.5515 78.358 72.7179C78.2008 72.8842 78.0903 73.0632 78.0265 73.2548C77.9627 73.4464 77.9307 73.6228 77.9307 73.7842C77.9307 74.2379 78.0584 74.5858 78.3138 74.8278C78.5691 75.0698 78.8859 75.2665 79.264 75.4177C79.6421 75.569 80.0546 75.7051 80.5014 75.8261C80.9483 75.9471 81.3608 76.116 81.7389 76.3328C82.117 76.5496 82.4338 76.842 82.6891 77.21C82.9445 77.5781 83.0721 78.0848 83.0721 78.7301C83.0721 79.2444 82.9764 79.7082 82.7849 80.1216C82.5934 80.5351 82.3356 80.8829 82.0115 81.1653C81.6874 81.4476 81.3043 81.6644 80.8624 81.8157ZM90.4428 82.0425C91.2384 82.0425 91.97 81.8989 92.6379 81.6115C93.3057 81.3241 93.8778 80.9283 94.3541 80.4241C94.8305 79.92 95.2037 79.325 95.4737 78.6394C95.7438 77.9537 95.8789 77.2126 95.8789 76.416C95.8789 75.6194 95.7438 74.8782 95.4737 74.1926C95.2037 73.5069 94.8305 72.912 94.3541 72.4078C93.8778 71.9036 93.3057 71.5078 92.6379 71.2205C91.97 70.9331 91.2383 70.7894 90.4428 70.7894C89.6473 70.7894 88.9156 70.9331 88.2478 71.2205C87.5799 71.5078 87.0079 71.9036 86.5315 72.4078C86.0552 72.912 85.682 73.5069 85.4119 74.1926C85.1418 74.8782 85.0068 75.6194 85.0068 76.416C85.0068 77.2126 85.1418 77.9537 85.4119 78.6394C85.682 79.325 86.0552 79.92 86.5315 80.4241C87.0079 80.9283 87.58 81.3241 88.2478 81.6115C88.9156 81.8989 89.6473 82.0425 90.4428 82.0425ZM88.822 80.3409C89.3032 80.5678 89.8434 80.6813 90.4425 80.6813C91.0416 80.6813 91.5817 80.5678 92.063 80.3409C92.5442 80.1141 92.9567 79.809 93.3004 79.4259C93.6442 79.0427 93.9094 78.5915 94.096 78.0722C94.2826 77.5529 94.3759 77.0008 94.3759 76.416C94.3759 75.8311 94.2826 75.279 94.096 74.7597C93.9094 74.2404 93.6442 73.7892 93.3004 73.406C92.9567 73.0229 92.5442 72.7178 92.063 72.491C91.5817 72.2641 91.0416 72.1507 90.4425 72.1507C89.8434 72.1507 89.3032 72.2641 88.822 72.491C88.3407 72.7178 87.9283 73.0229 87.5845 73.406C87.2408 73.7892 86.9756 74.2404 86.789 74.7597C86.6024 75.279 86.5091 75.8311 86.5091 76.416C86.5091 77.0008 86.6024 77.5529 86.789 78.0722C86.9756 78.5915 87.2408 79.0427 87.5845 79.4259C87.9283 79.809 88.3407 80.1141 88.822 80.3409ZM104.605 81.7718L104.605 80.4106L99.8172 80.4106L99.8172 71.0632L98.4029 71.0632L98.4029 81.7718L104.605 81.7718ZM111.976 81.7416C111.485 81.9432 110.954 82.0441 110.385 82.0441C109.815 82.0441 109.285 81.9432 108.794 81.7416C108.302 81.5399 107.875 81.2525 107.512 80.8794C107.148 80.5063 106.864 80.0652 106.657 79.556C106.451 79.0468 106.348 78.4796 106.348 77.8544L106.348 71.0632L107.762 71.0632L107.762 77.6275C107.762 77.9603 107.806 78.3056 107.895 78.6636C107.983 79.0216 108.131 79.3518 108.337 79.6543C108.543 79.9568 108.813 80.2038 109.147 80.3954C109.481 80.587 109.894 80.6828 110.385 80.6828C110.876 80.6828 111.288 80.587 111.622 80.3954C111.956 80.2038 112.226 79.9568 112.432 79.6543C112.639 79.3518 112.786 79.0216 112.874 78.6636C112.963 78.3056 113.007 77.9603 113.007 77.6275L113.007 71.0632L114.421 71.0632L114.421 77.8544C114.421 78.4796 114.318 79.0468 114.112 79.556C113.905 80.0652 113.621 80.5063 113.257 80.8794C112.894 81.2525 112.467 81.5399 111.976 81.7416ZM120.997 81.7718L120.997 72.4244L124.356 72.4244L124.356 71.0632L116.224 71.0632L116.224 72.4244L119.583 72.4244L119.583 81.7718L120.997 81.7718ZM127.764 71.0632L127.764 81.7718L126.349 81.7718L126.349 71.0632L127.764 71.0632ZM135.724 82.0425C136.519 82.0425 137.251 81.8988 137.919 81.6115C138.587 81.3241 139.159 80.9283 139.635 80.4241C140.112 79.92 140.485 79.325 140.755 78.6394C141.025 77.9537 141.16 77.2126 141.16 76.416C141.16 75.6194 141.025 74.8782 140.755 74.1925C140.485 73.5069 140.112 72.9119 139.635 72.4078C139.159 71.9036 138.587 71.5078 137.919 71.2204C137.251 70.9331 136.519 70.7894 135.724 70.7894C134.928 70.7894 134.197 70.9331 133.529 71.2204C132.861 71.5078 132.289 71.9036 131.813 72.4078C131.336 72.9119 130.963 73.5069 130.693 74.1926C130.423 74.8782 130.288 75.6194 130.288 76.416C130.288 77.2126 130.423 77.9537 130.693 78.6394C130.963 79.325 131.336 79.92 131.813 80.4241C132.289 80.9283 132.861 81.3241 133.529 81.6115C134.197 81.8988 134.928 82.0425 135.724 82.0425ZM134.103 80.3409C134.584 80.5678 135.125 80.6813 135.724 80.6813C136.323 80.6813 136.863 80.5678 137.344 80.3409C137.825 80.1141 138.238 79.809 138.582 79.4259C138.925 79.0427 139.19 78.5915 139.377 78.0722C139.564 77.5529 139.657 77.0008 139.657 76.4159C139.657 75.8311 139.564 75.279 139.377 74.7597C139.19 74.2404 138.925 73.7892 138.582 73.406C138.238 73.0229 137.825 72.7178 137.344 72.491C136.863 72.2641 136.323 72.1506 135.724 72.1506C135.125 72.1506 134.584 72.2641 134.103 72.491C133.622 72.7178 133.209 73.0229 132.866 73.406C132.522 73.7892 132.257 74.2404 132.07 74.7597C131.884 75.279 131.79 75.8311 131.79 76.4159C131.79 77.0008 131.884 77.5529 132.07 78.0722C132.257 78.5915 132.522 79.0427 132.866 79.4259C133.209 79.809 133.622 80.1141 134.103 80.3409ZM145.098 81.7718L145.098 72.9689L145.128 72.9689L150.932 81.7718L152.729 81.7718L152.729 71.0632L151.315 71.0632L151.315 79.866L151.286 79.866L145.54 71.0632L143.684 71.0632L143.684 81.7718L145.098 81.7718ZM159.79 81.8157C159.348 81.9669 158.876 82.0425 158.376 82.0425C157.708 82.0425 157.074 81.9215 156.475 81.6795C155.876 81.4375 155.4 81.0644 155.046 80.5603L156.21 79.5317C156.465 79.925 156.792 80.2149 157.19 80.4014C157.587 80.588 157.997 80.6813 158.42 80.6813C158.655 80.6813 158.896 80.6435 159.142 80.5678C159.387 80.4922 159.611 80.3788 159.812 80.2275C160.013 80.0763 160.178 79.8897 160.305 79.6679C160.433 79.446 160.497 79.1889 160.497 78.8965C160.497 78.4831 160.369 78.168 160.114 77.9512C159.859 77.7344 159.542 77.5529 159.164 77.4067C158.786 77.2604 158.373 77.1193 157.926 76.9831C157.479 76.847 157.067 76.658 156.689 76.416C156.311 76.174 155.994 75.8488 155.739 75.4404C155.483 75.032 155.356 74.4799 155.356 73.7842C155.356 73.4716 155.422 73.1388 155.554 72.7859C155.687 72.433 155.896 72.1103 156.181 71.8179C156.465 71.5255 156.831 71.2809 157.278 71.0843C157.725 70.8877 158.263 70.7894 158.891 70.7894C159.461 70.7894 160.006 70.87 160.526 71.0314C161.047 71.1927 161.504 71.5204 161.896 72.0145L160.747 73.0884C160.571 72.8061 160.32 72.5792 159.996 72.4078C159.672 72.2364 159.304 72.1506 158.891 72.1506C158.498 72.1506 158.172 72.2036 157.912 72.3095C157.651 72.4153 157.443 72.5515 157.285 72.7178C157.128 72.8842 157.018 73.0632 156.954 73.2548C156.89 73.4464 156.858 73.6228 156.858 73.7842C156.858 74.2379 156.986 74.5858 157.241 74.8278C157.497 75.0698 157.813 75.2664 158.191 75.4177C158.57 75.5689 158.982 75.7051 159.429 75.8261C159.876 75.9471 160.288 76.116 160.666 76.3328C161.044 76.5496 161.361 76.842 161.617 77.21C161.872 77.5781 162 78.0848 162 78.7301C162 79.2444 161.904 79.7082 161.712 80.1216C161.521 80.5351 161.263 80.8829 160.939 81.1653C160.615 81.4476 160.232 81.6644 159.79 81.8157Z" fill="#02072F"/>
<path fill-rule="evenodd" clip-rule="evenodd" d="M14.4199 17.5929C13.0834 17.5929 12 18.6763 12 20.0128C12 21.3493 13.0834 22.4327 14.4199 22.4327L41.8685 22.4327C43.205 22.4327 44.2884 21.3493 44.2884 20.0128C44.2884 18.6763 43.205 17.5929 41.8685 17.5929L14.4199 17.5929ZM14.4199 25.0138C13.0834 25.0138 12 26.0972 12 27.4337C12 28.7702 13.0834 29.8536 14.4199 29.8536L51.7034 29.8536C53.0399 29.8536 54.1233 28.7702 54.1233 27.4337C54.1233 26.0972 53.0399 25.0138 51.7034 25.0138L14.4199 25.0138ZM12 34.8542C12 33.5177 13.0834 32.4342 14.4199 32.4342L51.7034 32.4342C53.0399 32.4342 54.1233 33.5177 54.1233 34.8541C54.1233 36.1906 53.0399 37.2741 51.7034 37.2741L14.4199 37.2741C13.0834 37.2741 12 36.1906 12 34.8542ZM14.4199 39.8559C13.0834 39.8559 12 40.9393 12 42.2758C12 43.6122 13.0834 44.6957 14.4199 44.6957L38.591 44.6957C39.9274 44.6957 41.0109 43.6122 41.0109 42.2758C41.0109 40.9393 39.9274 39.8559 38.591 39.8559L14.4199 39.8559ZM12 49.6961C12 48.3596 13.0834 47.2761 14.4199 47.2761L43.5078 47.2761C44.8443 47.2761 45.9278 48.3596 45.9278 49.696C45.9278 51.0325 44.8443 52.116 43.5078 52.116L14.4199 52.116C13.0834 52.116 12 51.0325 12 49.6961ZM14.4199 54.6969C13.0834 54.6969 12 55.7803 12 57.1168C12 58.4533 13.0834 59.5367 14.4199 59.5367L48.4247 59.5367C49.7612 59.5367 50.8446 58.4533 50.8446 57.1168C50.8446 55.7803 49.7612 54.6969 48.4247 54.6969L14.4199 54.6969Z" fill="#02072F"/>
</svg>
