<svg width="6" height="11" viewBox="0 0 6 11" fill="none" xmlns="http://www.w3.org/2000/svg">
<path d="M1.894 7.84316V7.28316C1.894 6.8445 1.978 6.4385 2.146 6.06516C2.314 5.69183 2.60333 5.28583 3.014 4.84716C3.322 4.5205 3.53667 4.23583 3.658 3.99316C3.78867 3.74116 3.854 3.48916 3.854 3.23716C3.854 2.91983 3.73267 2.6725 3.49 2.49516C3.25667 2.31783 2.93 2.22916 2.51 2.22916C2.146 2.22916 1.78667 2.28516 1.432 2.39716C1.07733 2.50916 0.741333 2.6585 0.424 2.84516V1.33316C0.750667 1.1465 1.11933 1.0065 1.53 0.913164C1.95 0.810498 2.36067 0.759165 2.762 0.759165C3.31267 0.759165 3.80267 0.843165 4.232 1.01116C4.67067 1.16983 5.01133 1.41716 5.254 1.75316C5.506 2.07983 5.632 2.49983 5.632 3.01316C5.632 3.32116 5.576 3.61983 5.464 3.90916C5.36133 4.18916 5.212 4.45983 5.016 4.72116C4.82 4.9825 4.57733 5.24383 4.288 5.50516C3.83067 5.9065 3.51333 6.2565 3.336 6.55516C3.15867 6.85383 3.05133 7.1525 3.014 7.45116L2.958 7.84316H1.894ZM1.446 10.7692V8.82316H3.406V10.7692H1.446Z" fill="#AEADB7"/>
</svg>
