<svg width="60" height="60" viewBox="0 0 60 60" fill="none" xmlns="http://www.w3.org/2000/svg">
<path d="M43.1303 16.8698C48.441 22.1804 50.0297 30.1672 47.1555 37.106C44.2814 44.0447 37.5105 48.5689 30.0001 48.5689C22.4897 48.5689 15.7188 44.0447 12.8447 37.106C9.97057 30.1672 11.5592 22.1804 16.8699 16.8698C20.3521 13.3872 25.0753 11.4307 30.0001 11.4307C34.925 11.4307 39.6481 13.3872 43.1303 16.8698" stroke="#1D4ED8" stroke-width="3" stroke-linecap="round" stroke-linejoin="round"/>
<path d="M52.5095 30.0005H48.5693" stroke="#1D4ED8" stroke-width="3" stroke-linecap="round" stroke-linejoin="round"/>
<path d="M11.4308 30.0005H7.49072" stroke="#1D4ED8" stroke-width="3" stroke-linecap="round" stroke-linejoin="round"/>
<path d="M30 52.5096V48.5693" stroke="#1D4ED8" stroke-width="3" stroke-linecap="round" stroke-linejoin="round"/>
<path d="M30 7.49121V11.4313" stroke="#1D4ED8" stroke-width="3" stroke-linecap="round" stroke-linejoin="round"/>
<path d="M50.7959 21.3861L47.1545 22.8943" stroke="#1D4ED8" stroke-width="3" stroke-linecap="round" stroke-linejoin="round"/>
<path d="M12.8456 37.1058L9.20435 38.614" stroke="#1D4ED8" stroke-width="3" stroke-linecap="round" stroke-linejoin="round"/>
<path d="M21.3862 9.2041L22.8946 12.8455" stroke="#1D4ED8" stroke-width="3" stroke-linecap="round" stroke-linejoin="round"/>
<path d="M38.6141 50.7957L37.1057 47.1543" stroke="#1D4ED8" stroke-width="3" stroke-linecap="round" stroke-linejoin="round"/>
<path d="M9.20435 21.3861L12.8457 22.8943" stroke="#1D4ED8" stroke-width="3" stroke-linecap="round" stroke-linejoin="round"/>
<path d="M47.1548 37.1058L50.796 38.614" stroke="#1D4ED8" stroke-width="3" stroke-linecap="round" stroke-linejoin="round"/>
<path d="M21.3862 50.7957L22.8946 47.1543" stroke="#1D4ED8" stroke-width="3" stroke-linecap="round" stroke-linejoin="round"/>
<path d="M38.6141 9.2041L37.1057 12.8455" stroke="#1D4ED8" stroke-width="3" stroke-linecap="round" stroke-linejoin="round"/>
<path d="M45.9166 45.9169L34.5476 34.5479" stroke="#1D4ED8" stroke-width="3" stroke-linecap="round" stroke-linejoin="round"/>
<path d="M25.4525 25.453L14.0835 14.084" stroke="#1D4ED8" stroke-width="3" stroke-linecap="round" stroke-linejoin="round"/>
<path d="M45.9166 14.084L34.5476 25.453" stroke="#1D4ED8" stroke-width="3" stroke-linecap="round" stroke-linejoin="round"/>
<path d="M25.4525 34.5479L14.0835 45.9169" stroke="#1D4ED8" stroke-width="3" stroke-linecap="round" stroke-linejoin="round"/>
<path d="M34.5477 25.4531C36.3869 27.2924 36.9372 30.0585 35.9418 32.4617C34.9463 34.8648 32.6013 36.4317 30.0002 36.4317C27.399 36.4317 25.054 34.8648 24.0586 32.4617C23.0632 30.0585 23.6134 27.2924 25.4527 25.4531C26.6587 24.2469 28.2945 23.5693 30.0002 23.5693C31.7058 23.5693 33.3416 24.2469 34.5477 25.4531" stroke="#1D4ED8" stroke-width="3" stroke-linecap="round" stroke-linejoin="round"/>
</svg>
