<svg width="62" height="62" viewBox="0 0 62 62" fill="none" xmlns="http://www.w3.org/2000/svg">
<path fill-rule="evenodd" clip-rule="evenodd" d="M39.8758 8.79754H39.8759C41.939 9.48523 43.3304 11.4162 43.3299 13.5909V13.7277C43.3291 16.4754 45.5248 18.7198 48.2719 18.7791L48.5674 18.7855C50.441 18.8261 52.1381 19.9005 52.9762 21.5767V21.5767C53.9488 23.5219 53.5672 25.8711 52.029 27.4085L51.9323 27.5051C49.9888 29.4475 49.9544 32.5872 51.855 34.5717L52.0593 34.785C53.3554 36.1384 53.7958 38.0982 53.2032 39.8761V39.8761C52.5155 41.9392 50.5845 43.3306 48.4098 43.33H48.2731C45.5254 43.3293 43.281 45.525 43.2217 48.2721L43.2153 48.5675C43.1747 50.4411 42.1003 52.1383 40.4241 52.9764V52.9764C38.479 53.9489 36.1297 53.5674 34.5923 52.0292L34.4957 51.9324C32.5533 49.989 29.4136 49.9546 27.4291 51.8551L27.2158 52.0594C25.8624 53.3556 23.9026 53.796 22.1247 53.2034V53.2034C20.0616 52.5157 18.6702 50.5847 18.6708 48.41V48.2733C18.6715 45.5255 16.4758 43.2812 13.7287 43.2218L13.4332 43.2154C11.5597 43.1749 9.86249 42.1005 9.02444 40.4243V40.4243C8.05185 38.4792 8.43331 36.13 9.97136 34.5926L10.0681 34.4959C12.0116 32.5535 12.046 29.4139 10.1455 27.4294L9.94104 27.2159C8.6449 25.8625 8.20457 23.9027 8.79717 22.1249V22.1249C9.48486 20.0617 11.4159 18.6703 13.5906 18.6709H13.7273C16.475 18.6717 18.7194 16.4759 18.7787 13.7289L18.7852 13.4334C18.8257 11.5598 19.9001 9.86271 21.5762 9.02463V9.02463C23.5213 8.05205 25.8706 8.43363 27.4079 9.97182L27.5046 10.0685C29.447 12.012 32.5867 12.0463 34.5712 10.1458L34.7844 9.94151C36.1379 8.64521 38.0978 8.20483 39.8758 8.79754Z" stroke="#1D4ED8" stroke-width="3" stroke-linecap="round" stroke-linejoin="round"/>
<circle cx="31.0002" cy="30.9997" r="6.2526" stroke="#1D4ED8" stroke-width="3" stroke-linecap="round" stroke-linejoin="round"/>
</svg>
