<svg width="60" height="60" viewBox="0 0 60 60" fill="none" xmlns="http://www.w3.org/2000/svg">
<path d="M37.5 7.5V12.5" stroke="#1D4ED8" stroke-width="3" stroke-linecap="round" stroke-linejoin="round"/>
<path d="M27.5 7.5V12.5" stroke="#1D4ED8" stroke-width="3" stroke-linecap="round" stroke-linejoin="round"/>
<path d="M17.5 7.5V12.5" stroke="#1D4ED8" stroke-width="3" stroke-linecap="round" stroke-linejoin="round"/>
<path d="M47.5 30.65V15C47.5 12.2375 45.2625 10 42.5 10H12.5C9.7375 10 7.5 12.2375 7.5 15V42.5C7.5 45.2625 9.7375 47.5 12.5 47.5H34.395" stroke="#1D4ED8" stroke-width="3" stroke-linecap="round" stroke-linejoin="round"/>
<path d="M17.5 22.5H37.5" stroke="#1D4ED8" stroke-width="3" stroke-linecap="round" stroke-linejoin="round"/>
<path d="M17.5 32.5H25" stroke="#1D4ED8" stroke-width="3" stroke-linecap="round" stroke-linejoin="round"/>
<path d="M43.7524 52.5C37.5399 52.5 32.5024 47.4625 32.5024 41.25C32.5024 35.165 37.6774 29.995 43.7624 30C49.9724 30.005 55.0024 35.04 55.0024 41.25C55.0024 47.4625 49.9674 52.5 43.7524 52.5" stroke="#1D4ED8" stroke-width="3" stroke-linecap="round" stroke-linejoin="round"/>
<path d="M43.75 36.75V45.75" stroke="#323232" stroke-width="1.5" stroke-linecap="round" stroke-linejoin="round"/>
<path d="M48.25 41.25H39.25" stroke="#1D4ED8" stroke-width="3" stroke-linecap="round" stroke-linejoin="round"/>
</svg>
