<svg width="60" height="60" viewBox="0 0 60 60" fill="none" xmlns="http://www.w3.org/2000/svg">
<path d="M45.4234 17.7469C45.2739 17.5468 45.1141 17.3546 44.9448 17.1713C45.1151 16.7134 45.2445 16.2411 45.3313 15.76C45.5878 14 45.3651 12.2028 44.6871 10.5607C44.6871 10.5607 42.6253 9.91076 37.8945 13.1232C35.886 12.5638 33.8114 12.2827 31.7277 12.2876C29.6381 12.2839 27.5576 12.565 25.5426 13.1232C20.8117 9.87363 18.75 10.5607 18.75 10.5607C18.0801 12.1854 17.8575 13.9625 18.1057 15.7043C18.1931 16.2054 18.3287 16.6967 18.5107 17.1713C18.345 17.357 18.1794 17.5612 18.0321 17.7469C16.6585 19.485 15.9293 21.6522 15.9704 23.8747C15.966 24.4018 15.9906 24.9287 16.044 25.4531C16.6331 33.6792 22.0635 35.5918 27.2362 36.186C26.504 36.8727 26.0076 37.7767 25.8187 38.7671C25.6476 39.4276 25.5671 40.1086 25.5794 40.7911V43.2237C23.5196 43.4094 21.4063 43.1067 20.751 41.2535C20.0475 39.4797 18.8808 37.9313 17.3749 36.7728C17.2649 36.7127 17.1602 36.6431 17.062 36.5648C16.9298 36.2142 16.6955 35.9122 16.3899 35.6985C16.0844 35.4847 15.7219 35.3692 15.35 35.3671H15.3408C14.8542 35.3671 14.3874 35.5614 14.0424 35.9077C13.6975 36.2539 13.5024 36.7238 13.5 37.2147C13.4945 38.7225 14.9911 39.6974 15.6041 40.0279C16.3202 40.7559 16.8963 41.6115 17.3031 42.5515C17.9732 44.4511 19.9337 47.3386 25.5242 46.9635L25.5279 47.1454L25.5352 47.6431C25.5352 48.1356 25.7292 48.6079 26.0744 48.9561C26.4196 49.3044 26.8878 49.5 27.3761 49.5H36.0536C36.5419 49.5 37.0101 49.3044 37.3553 48.9561C37.7005 48.6079 37.8945 48.1356 37.8945 47.6431C37.8945 47.6431 37.9092 41.7753 37.9092 40.7911C37.9214 40.1086 37.8409 39.4276 37.6699 38.7671L37.6662 38.7559L37.6736 38.7671C37.657 38.7021 37.6331 38.6501 37.6147 38.587C37.4095 37.6669 36.9349 36.8304 36.2525 36.186L36.2745 36.225L36.2377 36.1878C41.4104 35.5936 46.804 33.6439 47.393 25.4549C47.4465 24.9306 47.471 24.4036 47.4667 23.8766C47.4993 21.6585 46.7783 19.4942 45.4234 17.7469Z" fill="#1D4ED8"/>
</svg>
