<svg width="60" height="60" viewBox="0 0 60 60" fill="none" xmlns="http://www.w3.org/2000/svg">
<g clip-path="url(#clip0_147_1957)">
<path d="M48.3813 30.3648C48.3813 28.767 48.2524 27.601 47.9733 26.3918H29.8281V33.6036H40.479C40.2643 35.3958 39.1047 38.0948 36.5278 39.9085L36.4917 40.1499L42.2289 44.619L42.6264 44.6589C46.2768 41.2689 48.3813 36.281 48.3813 30.3648Z" fill="#1D4ED8"/>
<path d="M29.8283 49.3659C35.0463 49.3659 39.4269 47.6385 42.6266 44.6589L36.528 39.9084C34.8961 41.0528 32.7057 41.8517 29.8283 41.8517C24.7176 41.8517 20.38 38.4619 18.8337 33.7764L18.6071 33.7957L12.6415 38.4381L12.5635 38.6561C15.7415 45.0042 22.2695 49.3659 29.8283 49.3659Z" fill="#1D4ED8"/>
<path d="M18.8336 33.7765C18.4256 32.5674 18.1895 31.2718 18.1895 29.9331C18.1895 28.5943 18.4256 27.2988 18.8122 26.0897L18.8014 25.8322L12.761 21.1152L12.5634 21.2098C11.2535 23.844 10.502 26.8022 10.502 29.9331C10.502 33.064 11.2535 36.022 12.5634 38.6563L18.8336 33.7765Z" fill="#1D4ED8"/>
<path d="M29.8283 18.014C33.4573 18.014 35.9052 19.5903 37.3011 20.9075L42.7553 15.5526C39.4056 12.4217 35.0463 10.5 29.8283 10.5C22.2695 10.5 15.7415 14.8616 12.5635 21.2097L18.8123 26.0896C20.38 21.4041 24.7176 18.014 29.8283 18.014Z" fill="#1D4ED8"/>
</g>
<defs>
<clipPath id="clip0_147_1957">
<rect width="37.9014" height="39" fill="white" transform="translate(10.5 10.5)"/>
</clipPath>
</defs>
</svg>
