<svg width="60" height="60" viewBox="0 0 60 60" fill="none" xmlns="http://www.w3.org/2000/svg">
<path fill-rule="evenodd" clip-rule="evenodd" d="M25.3099 22.5H14.6899C13.3099 22.5 12.1899 21.38 12.1899 20V15C12.1899 13.62 13.3099 12.5 14.6899 12.5H25.3099C26.6899 12.5 27.8099 13.62 27.8099 15V20C27.8099 21.38 26.6899 22.5 25.3099 22.5Z" stroke="#1D4ED8" stroke-width="3" stroke-linecap="round" stroke-linejoin="round"/>
<path d="M42.5 15.8149V15.8149C44.33 17.6449 44.33 20.6124 42.5 22.4449V22.4449" stroke="#1D4ED8" stroke-width="3" stroke-linecap="round" stroke-linejoin="round"/>
<path d="M50.2349 12.5C53.8949 16.16 53.8949 22.0975 50.2349 25.7575" stroke="#1D4ED8" stroke-width="3" stroke-linecap="round" stroke-linejoin="round"/>
<path fill-rule="evenodd" clip-rule="evenodd" d="M45 55H22.5C21.12 55 20 53.88 20 52.5V40C20 38.62 21.12 37.5 22.5 37.5H45C46.38 37.5 47.5 38.62 47.5 40V52.5C47.5 53.88 46.38 55 45 55Z" stroke="#1D4ED8" stroke-width="3" stroke-linecap="round" stroke-linejoin="round"/>
<path d="M35 37.5V10C35 7.2375 32.7625 5 30 5H10C7.2375 5 5 7.2375 5 10V40C5 42.7625 7.2375 45 10 45H20" stroke="#1D4ED8" stroke-width="3" stroke-linecap="round" stroke-linejoin="round"/>
<path d="M20 45H47.5" stroke="#1D4ED8" stroke-width="3" stroke-linecap="round" stroke-linejoin="round"/>
<path d="M12.5 29.9748C12.4925 29.9748 12.4875 29.9798 12.4875 29.9873C12.4875 29.9948 12.4925 29.9998 12.5 29.9998C12.5075 29.9998 12.5125 29.9948 12.5125 29.9873C12.5125 29.9798 12.5075 29.9748 12.5 29.9748" stroke="#1D4ED8" stroke-width="3" stroke-linecap="round" stroke-linejoin="round"/>
<path d="M20 30.0002C19.9925 30.0002 19.9875 30.0052 19.9875 30.0127C19.9875 30.0202 19.9925 30.0252 20 30.0252C20.0075 30.0252 20.0125 30.0202 20.0125 30.0127C20.0125 30.0052 20.0075 30.0002 20 30.0002" stroke="#1D4ED8" stroke-width="3" stroke-linecap="round" stroke-linejoin="round"/>
<path d="M27.5125 29.9875C27.505 29.9875 27.5 29.9925 27.5 30C27.5 30.0075 27.505 30.0125 27.5125 30.0125C27.52 30.0125 27.525 30.0075 27.525 30C27.525 29.9925 27.52 29.9875 27.5125 29.9875" stroke="#1D4ED8" stroke-width="3" stroke-linecap="round" stroke-linejoin="round"/>
</svg>
