<svg width="60" height="60" viewBox="0 0 60 60" fill="none" xmlns="http://www.w3.org/2000/svg">
<path d="M10.5 14.8685C10.5 13.6022 10.9392 12.5576 11.8176 11.7346C12.6959 10.9115 13.8379 10.5 15.2432 10.5C16.6236 10.5 17.7403 10.9052 18.5936 11.7156C19.472 12.5513 19.9112 13.6402 19.9112 14.9825C19.9112 16.1981 19.4846 17.211 18.6313 18.0214C17.7529 18.8571 16.5985 19.275 15.168 19.275H15.1303C13.75 19.275 12.6332 18.8571 11.7799 18.0214C10.9266 17.1857 10.5 16.1347 10.5 14.8685ZM10.9894 48.1071V22.7318H19.3465V48.1071H10.9894ZM23.9768 48.1071H32.334V33.938C32.334 33.0516 32.4344 32.3678 32.6351 31.8867C32.9865 31.0256 33.5198 30.2975 34.235 29.7024C34.9503 29.1073 35.8475 28.8097 36.9266 28.8097C39.7375 28.8097 41.1429 30.7217 41.1429 34.5458V48.1071H49.5V33.5581C49.5 29.8101 48.6216 26.9674 46.8649 25.03C45.1081 23.0927 42.7867 22.124 39.9006 22.124C36.6631 22.124 34.1409 23.5295 32.334 26.3406V26.4166H32.2963L32.334 26.3406V22.7318H23.9768C24.027 23.5422 24.0521 26.062 24.0521 30.2912C24.0521 34.5204 24.027 40.4591 23.9768 48.1071Z" fill="#1D4ED8"/>
</svg>
