<svg width="60" height="60" viewBox="0 0 60 60" fill="none" xmlns="http://www.w3.org/2000/svg">
<path d="M37.5 10.0249V43.6999" stroke="#1D4ED8" stroke-width="3" stroke-linecap="round" stroke-linejoin="round"/>
<path d="M22.5 14.4502V50.0002" stroke="#1D4ED8" stroke-width="3" stroke-linecap="round" stroke-linejoin="round"/>
<path fill-rule="evenodd" clip-rule="evenodd" d="M39.08 10.2577L50.79 14.1602C51.8125 14.5002 52.5 15.4552 52.5 16.5327V46.5452C52.5 48.4027 50.545 49.6127 48.8825 48.7802L39.7375 44.2077C38.33 43.5027 36.6725 43.5027 35.265 44.2077L24.7375 49.4727C23.33 50.1777 21.6725 50.1777 20.265 49.4727L8.8825 43.7827C8.035 43.3577 7.5 42.4927 7.5 41.5452V13.1977C7.5 11.4902 9.1725 10.2852 10.79 10.8252L20.9175 14.2002C21.945 14.5427 23.0525 14.5427 24.08 14.2002L35.9175 10.2552C36.945 9.91518 38.055 9.91518 39.08 10.2577Z" stroke="#1D4ED8" stroke-width="3" stroke-linecap="round" stroke-linejoin="round"/>
</svg>
