<svg width="60" height="60" viewBox="0 0 60 60" fill="none" xmlns="http://www.w3.org/2000/svg">
<path d="M35 39.9497V42.4747" stroke="#1D4ED8" stroke-width="3" stroke-linecap="round" stroke-linejoin="round"/>
<path d="M25 39.9497V42.4747" stroke="#1D4ED8" stroke-width="3" stroke-linecap="round" stroke-linejoin="round"/>
<path fill-rule="evenodd" clip-rule="evenodd" d="M50 30H10C8.62 30 7.5 28.88 7.5 27.5V22.5C7.5 21.12 8.62 20 10 20H50C51.38 20 52.5 21.12 52.5 22.5V27.5C52.5 28.88 51.38 30 50 30Z" stroke="#1D4ED8" stroke-width="3" stroke-linecap="round" stroke-linejoin="round"/>
<path d="M35.1001 7.57471L42.5001 19.9247" stroke="#1D4ED8" stroke-width="3" stroke-linecap="round" stroke-linejoin="round"/>
<path d="M24.9 7.57471L17.5 19.9247" stroke="#1D4ED8" stroke-width="3" stroke-linecap="round" stroke-linejoin="round"/>
<path d="M49.395 30L45.1775 49.4725C44.805 51.1975 43.2775 52.4275 41.5125 52.4275H18.4875C16.7225 52.4275 15.1975 51.1975 14.8225 49.4725L10.605 30" stroke="#1D4ED8" stroke-width="3" stroke-linecap="round" stroke-linejoin="round"/>
</svg>
