<svg width="60" height="60" viewBox="0 0 60 60" fill="none" xmlns="http://www.w3.org/2000/svg">
<path d="M52.4999 28.2275C52.4999 39.575 42.3799 48.6825 29.9999 48.6825C28.3974 48.6825 26.8374 48.525 25.3274 48.235" stroke="#1D4ED8" stroke-width="3" stroke-linecap="round" stroke-linejoin="round"/>
<path d="M16.4975 44.565C11.05 40.84 7.5 34.935 7.5 28.2275" stroke="#1D4ED8" stroke-width="3" stroke-linecap="round" stroke-linejoin="round"/>
<path d="M16.4974 44.5649C16.4949 46.6999 16.4999 49.5799 16.4999 52.6024" stroke="#1D4ED8" stroke-width="3" stroke-linecap="round" stroke-linejoin="round"/>
<path d="M7.5 28.2274C7.5 16.8799 17.62 7.7749 30 7.7749C42.38 7.7749 52.5 16.8824 52.5 28.2299" stroke="#1D4ED8" stroke-width="3" stroke-linecap="round" stroke-linejoin="round"/>
<path d="M25.325 48.2251L16.5 52.6001" stroke="#1D4ED8" stroke-width="3" stroke-linecap="round" stroke-linejoin="round"/>
<path d="M30.4419 28.3081C30.686 28.5521 30.686 28.9479 30.4419 29.1919C30.1979 29.436 29.8021 29.436 29.5581 29.1919C29.314 28.9479 29.314 28.5521 29.5581 28.3081C29.8021 28.064 30.1979 28.064 30.4419 28.3081" stroke="#1D4ED8" stroke-width="3" stroke-linecap="round" stroke-linejoin="round"/>
<path d="M40.4419 28.3081C40.686 28.5521 40.686 28.9479 40.4419 29.1919C40.1979 29.436 39.8021 29.436 39.5581 29.1919C39.314 28.9479 39.314 28.5521 39.5581 28.3081C39.8021 28.064 40.1979 28.064 40.4419 28.3081" stroke="#1D4ED8" stroke-width="3" stroke-linecap="round" stroke-linejoin="round"/>
<path d="M20.4419 28.3081C20.686 28.5521 20.686 28.9479 20.4419 29.1919C20.1979 29.436 19.8021 29.436 19.5581 29.1919C19.314 28.9479 19.314 28.5521 19.5581 28.3081C19.8021 28.064 20.1979 28.064 20.4419 28.3081" stroke="#1D4ED8" stroke-width="3" stroke-linecap="round" stroke-linejoin="round"/>
</svg>
