<svg width="60" height="60" viewBox="0 0 60 60" fill="none" xmlns="http://www.w3.org/2000/svg">
<path d="M41.2549 55.0108C35.0398 55.0108 30.0002 49.9712 30.0002 43.7562C30.0002 37.5411 35.0398 32.5015 41.2549 32.5015C47.4725 32.5015 52.5096 37.5411 52.5096 43.7562C52.5096 49.9712 47.4725 55.0108 41.2549 55.0108" stroke="#1D4ED8" stroke-width="3" stroke-linecap="round" stroke-linejoin="round"/>
<path d="M45.0065 24.998V19.5658C45.0065 18.2402 44.4788 16.9672 43.5409 16.0293L36.468 8.95633C35.5301 8.01844 34.2571 7.49072 32.9315 7.49072H14.994C12.2304 7.49072 9.99194 9.72915 9.99194 12.4928V47.5074C9.99194 50.271 12.2304 52.5095 14.994 52.5095H24.9982" stroke="#1D4ED8" stroke-width="3" stroke-linecap="round" stroke-linejoin="round"/>
<path d="M45.0064 19.9959H35.0023C33.6217 19.9959 32.5012 18.8755 32.5012 17.4949V7.49072" stroke="#1D4ED8" stroke-width="3" stroke-linecap="round" stroke-linejoin="round"/>
<path d="M45.399 41.6851L40.2169 46.8672L37.1106 43.7559" stroke="#1D4ED8" stroke-width="3" stroke-linecap="round" stroke-linejoin="round"/>
</svg>
