<svg width="60" height="60" viewBox="0 0 60 60" fill="none" xmlns="http://www.w3.org/2000/svg">
<path fill-rule="evenodd" clip-rule="evenodd" d="M24.998 8.74082C24.998 6.66889 26.6777 4.98926 28.7496 4.98926H51.259C53.3309 4.98926 55.0105 6.66889 55.0105 8.74082V23.7471C55.0105 25.819 53.3309 27.4986 51.259 27.4986H48.846V32.4982C48.846 33.004 48.5413 33.46 48.0741 33.6535C47.6068 33.8471 47.0689 33.7401 46.7113 33.3825L40.8275 27.4986H28.7496C26.6777 27.4986 24.998 25.819 24.998 23.7471V8.74082Z" stroke="#1D4ED8" stroke-width="3" stroke-linecap="round" stroke-linejoin="round"/>
<path d="M32.5012 35.0027V45.1674C32.5012 47.2393 30.8216 48.9189 28.7496 48.9189H19.0915L13.3682 54.6422C13.0106 54.9998 12.4727 55.1068 12.0055 54.9133C11.5382 54.7197 11.2335 54.2638 11.2335 53.758V48.9189H8.74131C6.66938 48.9189 4.98975 47.2393 4.98975 45.1674V30.0006C4.98975 27.9287 6.66938 26.249 8.74131 26.249H17.495" stroke="#1D4ED8" stroke-width="3" stroke-linecap="round" stroke-linejoin="round"/>
<path d="M35.708 19.1919H44.2727" stroke="#1D4ED8" stroke-width="3" stroke-linecap="round" stroke-linejoin="round"/>
<path d="M45.0064 21.1917L41.4049 11.1875H38.6037L35.0022 21.1917" stroke="#1D4ED8" stroke-width="3" stroke-linecap="round" stroke-linejoin="round"/>
<path d="M18.7454 35.7648V32.5811" stroke="#1D4ED8" stroke-width="3" stroke-linecap="round" stroke-linejoin="round"/>
<path d="M18.7455 35.7656C18.7428 38.5178 17.3515 41.0828 15.0461 42.586" stroke="#1D4ED8" stroke-width="3" stroke-linecap="round" stroke-linejoin="round"/>
<path d="M22.4448 42.586C20.1393 41.0828 18.7481 38.5178 18.7454 35.7656" stroke="#1D4ED8" stroke-width="3" stroke-linecap="round" stroke-linejoin="round"/>
<path d="M23.1223 35.7652H14.3687" stroke="#1D4ED8" stroke-width="3" stroke-linecap="round" stroke-linejoin="round"/>
</svg>
