<svg width="60" height="60" viewBox="0 0 60 60" fill="none" xmlns="http://www.w3.org/2000/svg">
<path d="M30.0024 23.4375V21.25" stroke="#323232" stroke-width="1.5" stroke-linecap="round" stroke-linejoin="round"/>
<path d="M30.0024 36.5625V38.75" stroke="#323232" stroke-width="1.5" stroke-linecap="round" stroke-linejoin="round"/>
<path d="M26.2074 35.0001C26.7749 35.9276 27.7424 36.5701 28.9099 36.5701H30.0049H31.3074C33.0049 36.5701 34.3774 35.1951 34.3774 33.5001C34.3774 32.0901 33.4174 30.8626 32.0524 30.5176L27.9524 29.4876C26.5899 29.1451 25.6274 27.9151 25.6274 26.5051C25.6274 24.8076 27.0024 23.4351 28.6974 23.4351H29.9999H31.0949C32.2624 23.4351 33.2274 24.0726 33.7949 24.9976" stroke="#1D4ED8" stroke-width="3" stroke-linecap="round" stroke-linejoin="round"/>
<path fill-rule="evenodd" clip-rule="evenodd" d="M49.51 45.5327V45.5327C43.2475 44.2802 36.7875 44.4352 30.5925 45.9827L30 46.1327C23.415 47.7777 16.5475 47.9427 9.8925 46.6102L9.51 46.5327C8.34 46.3002 7.5 45.2727 7.5 44.0827V16.9852C7.5 15.4077 8.9425 14.2252 10.49 14.5327V14.5327C16.7525 15.7852 23.2125 15.6302 29.4075 14.0827L30.59 13.7877C36.785 12.2402 43.2475 12.0852 49.5075 13.3377L50.4875 13.5327C51.66 13.7677 52.5 14.7927 52.5 15.9852V43.0827C52.5 44.6602 51.0575 45.8427 49.51 45.5327V45.5327Z" stroke="#1D4ED8" stroke-width="3" stroke-linecap="round" stroke-linejoin="round"/>
</svg>
