<svg width="60" height="60" viewBox="0 0 60 60" fill="none" xmlns="http://www.w3.org/2000/svg">
<path d="M14.0834 14.0841C6.4901 21.6774 5.31806 33.5772 11.2841 42.5061C17.2501 51.4349 28.6926 54.906 38.6138 50.7966C48.535 46.6872 54.1718 36.1417 52.0769 25.6095C49.982 15.0772 40.7389 7.49121 30.0003 7.49121V12.4933" stroke="#1D4ED8" stroke-width="3" stroke-linecap="round" stroke-linejoin="round"/>
<path fill-rule="evenodd" clip-rule="evenodd" d="M20.963 20.0507L31.5997 24.4305C33.2977 25.1296 34.5338 26.6311 34.8939 28.4317C35.2541 30.2323 34.6905 32.0937 33.392 33.3922V33.3922C32.0936 34.6906 30.2322 35.2543 28.4316 34.8942C26.6309 34.5341 25.1294 33.2979 24.4302 31.6L20.0505 20.9632C19.943 20.7023 20.003 20.4023 20.2026 20.2028C20.4021 20.0033 20.7021 19.9433 20.963 20.0507Z" stroke="#1D4ED8" stroke-width="3" stroke-linecap="round" stroke-linejoin="round"/>
</svg>
