<svg width="60" height="60" viewBox="0 0 60 60" fill="none" xmlns="http://www.w3.org/2000/svg">
<path d="M36.25 7.5V12.5C36.25 13.1904 35.6904 13.75 35 13.75H25C24.3096 13.75 23.75 13.1904 23.75 12.5V7.5" stroke="#1D4ED8" stroke-width="3" stroke-linecap="round" stroke-linejoin="round"/>
<path d="M45 46.25V47.5C45 50.2614 42.7614 52.5 40 52.5H20C17.2386 52.5 15 50.2614 15 47.5V12.5C15 9.73858 17.2386 7.5 20 7.5H40C42.7614 7.5 45 9.73858 45 12.5V13.75" stroke="#1D4ED8" stroke-width="3" stroke-linecap="round" stroke-linejoin="round"/>
<path d="M37.1748 31.4463L33.8573 34.7635C33.3884 35.2324 33.125 35.8683 33.125 36.5314V38.7504C33.125 40.1311 34.2443 41.2504 35.625 41.2504H37.8438C38.5069 41.2504 39.1428 40.987 39.6116 40.5181L42.9291 37.2006" stroke="#1D4ED8" stroke-width="3" stroke-linecap="round" stroke-linejoin="round"/>
<path d="M37.1747 31.4463C36.1709 27.8286 37.7316 23.989 40.9746 22.0975C44.2176 20.206 48.3281 20.7379 50.9828 23.3926C53.6374 26.0473 54.1693 30.1577 52.2778 33.4007C50.3863 36.6437 46.5467 38.2044 42.9291 37.2007" stroke="#1D4ED8" stroke-width="3" stroke-linecap="round" stroke-linejoin="round"/>
<path d="M45 29.3625L45.0125 29.375L45 29.3875L44.9875 29.375L45 29.3625" stroke="#1D4ED8" stroke-width="3" stroke-linecap="round" stroke-linejoin="round"/>
</svg>
