<svg width="61" height="60" viewBox="0 0 61 60" fill="none" xmlns="http://www.w3.org/2000/svg">
<circle cx="30.3336" cy="30.0006" r="22.5094" stroke="#1D4ED8" stroke-width="3" stroke-linecap="round" stroke-linejoin="round"/>
<path d="M30.3337 19.9961C33.4029 19.9961 35.891 22.4842 35.891 25.5534C35.891 28.6226 33.4029 31.1107 30.3337 31.1107C27.2645 31.1107 24.7764 28.6226 24.7764 25.5534C24.7764 22.4842 27.2645 19.9961 30.3337 19.9961" stroke="#1D4ED8" stroke-width="3" stroke-linecap="round" stroke-linejoin="round"/>
<path fill-rule="evenodd" clip-rule="evenodd" d="M40.3379 41.1874C34.8127 46.7124 25.8548 46.7124 20.3296 41.1874C20.622 40.4565 21.073 39.7995 21.6501 39.2641C22.6258 38.3582 23.9077 37.8544 25.2391 37.8535H35.4309C36.7616 37.8543 38.0427 38.3582 39.0174 39.2641C39.5959 39.7984 40.0471 40.4556 40.3379 41.1874Z" stroke="#1D4ED8" stroke-width="3" stroke-linecap="round" stroke-linejoin="round"/>
</svg>
