<svg width="60" height="60" viewBox="0 0 60 60" fill="none" xmlns="http://www.w3.org/2000/svg">
<path d="M23.7725 45.0063V46.2869C23.7725 47.9381 24.4287 49.5216 25.5968 50.6887C26.7648 51.8558 28.3489 52.5108 30.0001 52.5095V52.5095C31.6515 52.5101 33.2355 51.8546 34.4035 50.6871C35.5715 49.5196 36.2277 47.9358 36.2277 46.2844V45.0063" stroke="#1D4ED8" stroke-width="3" stroke-linecap="round" stroke-linejoin="round"/>
<path fill-rule="evenodd" clip-rule="evenodd" d="M44.8737 45.0064C47.7095 45.0064 50.0084 42.7075 50.0084 39.8717V39.8717C50.0072 38.4312 49.4352 37.0498 48.4177 36.0301L45.0063 32.6212V22.497C45.0063 14.2093 38.2878 7.49072 30 7.49072V7.49072C21.7123 7.49072 14.9938 14.2093 14.9938 22.497V32.6212L11.5824 36.0301C10.5648 37.0498 9.99285 38.4312 9.9917 39.8717V39.8717C9.9917 41.2335 10.5327 42.5395 11.4956 43.5025C12.4585 44.4654 13.7645 45.0064 15.1263 45.0064H44.8737Z" stroke="#1D4ED8" stroke-width="3" stroke-linecap="round" stroke-linejoin="round"/>
</svg>
