<svg width="60" height="60" viewBox="0 0 60 60" fill="none" xmlns="http://www.w3.org/2000/svg">
<path d="M14.9226 16.5625L13.2551 9.0625H8.43262" stroke="#1D4ED8" stroke-width="3" stroke-linecap="round" stroke-linejoin="round"/>
<path fill-rule="evenodd" clip-rule="evenodd" d="M19.3276 37.0875L14.9226 16.5625H46.5676C48.1601 16.5625 49.3451 18.03 49.0126 19.5875L45.2576 37.0875C45.0101 38.24 43.9926 39.0625 42.8126 39.0625H21.7701C20.5926 39.0625 19.5751 38.24 19.3276 37.0875Z" stroke="#1D4ED8" stroke-width="3" stroke-linecap="round" stroke-linejoin="round"/>
<path d="M43.6625 48.125C43.145 48.125 42.725 48.545 42.73 49.0625C42.73 49.58 43.15 50 43.6675 50C44.185 50 44.605 49.58 44.605 49.0625C44.6025 48.545 44.1825 48.125 43.6625 48.125" stroke="#1D4ED8" stroke-width="3" stroke-linecap="round" stroke-linejoin="round"/>
<path d="M22.1401 48.125C21.6226 48.125 21.2026 48.545 21.2076 49.0625C21.2051 49.58 21.6251 50 22.1426 50C22.6601 50 23.0801 49.58 23.0801 49.0625C23.0801 48.545 22.6601 48.125 22.1401 48.125" stroke="#1D4ED8" stroke-width="3" stroke-linecap="round" stroke-linejoin="round"/>
</svg>
