<svg width="60" height="60" viewBox="0 0 60 60" fill="none" xmlns="http://www.w3.org/2000/svg">
<path d="M21.875 46.25H28.125" stroke="#1D4ED8" stroke-width="3" stroke-linecap="round" stroke-linejoin="round"/>
<path d="M37.5 32.4425V47.5C37.5 50.2625 35.2625 52.5 32.5 52.5H17.5C14.7375 52.5 12.5 50.2625 12.5 47.5V17.5C12.5 14.7375 14.7375 12.5 17.5 12.5H26.5" stroke="#1D4ED8" stroke-width="3" stroke-linecap="round" stroke-linejoin="round"/>
<path d="M32.5476 18.75C32.3751 18.75 32.2351 18.89 32.2376 19.0625C32.2376 19.235 32.3776 19.375 32.5501 19.375C32.7226 19.375 32.8626 19.235 32.8626 19.0625C32.8601 18.89 32.7201 18.75 32.5476 18.75" stroke="#1D4ED8" stroke-width="3" stroke-linecap="round" stroke-linejoin="round"/>
<path d="M38.7976 18.75C38.6251 18.75 38.4851 18.89 38.4876 19.0625C38.4876 19.235 38.6276 19.375 38.8001 19.375C38.9726 19.375 39.1126 19.235 39.1126 19.0625C39.1101 18.89 38.9701 18.75 38.7976 18.75" stroke="#1D4ED8" stroke-width="3" stroke-linecap="round" stroke-linejoin="round"/>
<path d="M45.0476 18.75C44.8751 18.75 44.7351 18.89 44.7351 19.0625C44.7351 19.235 44.8751 19.375 45.0476 19.375C45.2201 19.375 45.3601 19.235 45.3601 19.0625C45.3601 18.89 45.2201 18.75 45.0476 18.75" stroke="#1D4ED8" stroke-width="3" stroke-linecap="round" stroke-linejoin="round"/>
<path fill-rule="evenodd" clip-rule="evenodd" d="M26.5825 25.1475C25.5775 23.235 25 21.06 25 18.75C25 11.155 31.155 5 38.75 5C46.345 5 52.5 11.155 52.5 18.75C52.5 26.345 46.345 32.5 38.75 32.5C36.4575 32.5 34.3 31.93 32.4 30.94L25.0475 32.5L26.5825 25.1475Z" stroke="#1D4ED8" stroke-width="3" stroke-linecap="round" stroke-linejoin="round"/>
</svg>
