<svg width="60" height="60" viewBox="0 0 60 60" fill="none" xmlns="http://www.w3.org/2000/svg">
<path d="M21.3821 25.2854C23.986 27.8892 23.986 32.1108 21.3821 34.7147C18.7783 37.3185 14.5567 37.3185 11.9529 34.7147C9.34904 32.1108 9.34904 27.8892 11.9529 25.2854C14.5567 22.6816 18.7783 22.6816 21.3821 25.2854" stroke="#1D4ED8" stroke-width="3" stroke-linecap="round" stroke-linejoin="round"/>
<path d="M48.0472 11.9529C50.651 14.5567 50.651 18.7783 48.0472 21.3821C45.4434 23.986 41.2217 23.986 38.6179 21.3821C36.0141 18.7783 36.0141 14.5567 38.6179 11.9529C41.2217 9.34904 45.4434 9.34904 48.0472 11.9529" stroke="#1D4ED8" stroke-width="3" stroke-linecap="round" stroke-linejoin="round"/>
<path d="M48.0472 38.6179C50.651 41.2217 50.651 45.4434 48.0472 48.0472C45.4434 50.651 41.2217 50.651 38.6179 48.0472C36.0141 45.4434 36.0141 41.2217 38.6179 38.6179C41.2217 36.0141 45.4434 36.0141 48.0472 38.6179" stroke="#1D4ED8" stroke-width="3" stroke-linecap="round" stroke-linejoin="round"/>
<path d="M22.6001 27.025L37.4001 19.625" stroke="#1D4ED8" stroke-width="3" stroke-linecap="round" stroke-linejoin="round"/>
<path d="M22.6001 32.9751L37.4001 40.3751" stroke="#1D4ED8" stroke-width="3" stroke-linecap="round" stroke-linejoin="round"/>
</svg>
