<svg width="60" height="60" viewBox="0 0 60 60" fill="none" xmlns="http://www.w3.org/2000/svg">
<path d="M22.4971 16.0918H50.0085" stroke="#1D4ED8" stroke-width="3" stroke-linecap="round" stroke-linejoin="round"/>
<path d="M50.0084 30H27.499" stroke="#1D4ED8" stroke-width="3" stroke-linecap="round" stroke-linejoin="round"/>
<path d="M32.5012 43.9085H50.0085" stroke="#1D4ED8" stroke-width="3" stroke-linecap="round" stroke-linejoin="round"/>
<path d="M11.2422 14.8413C10.5516 14.8413 9.9917 15.4012 9.9917 16.0918C9.9917 16.7825 10.5516 17.3423 11.2422 17.3423C11.9329 17.3423 12.4927 16.7825 12.4927 16.0918C12.4927 15.4012 11.9329 14.8413 11.2422 14.8413" stroke="#1D4ED8" stroke-width="3" stroke-linecap="round" stroke-linejoin="round"/>
<path d="M16.2444 28.7495C15.5538 28.7495 14.9939 29.3094 14.9939 30C14.9939 30.6907 15.5538 31.2506 16.2444 31.2506C16.9351 31.2506 17.4949 30.6907 17.4949 30C17.4949 29.3094 16.9351 28.7495 16.2444 28.7495" stroke="#1D4ED8" stroke-width="3" stroke-linecap="round" stroke-linejoin="round"/>
<path d="M21.2464 42.658C20.5557 42.658 19.9958 43.2178 19.9958 43.9085C19.9958 44.5991 20.5557 45.159 21.2464 45.159C21.937 45.159 22.4969 44.5991 22.4969 43.9085C22.4969 43.2178 21.937 42.658 21.2464 42.658" stroke="#1D4ED8" stroke-width="3" stroke-linecap="round" stroke-linejoin="round"/>
</svg>
