<svg width="60" height="60" viewBox="0 0 60 60" fill="none" xmlns="http://www.w3.org/2000/svg">
<path d="M27.5 39.75H9.75C7.125 39.75 5 37.625 5 35V12.25C5 9.625 7.125 7.5 9.75 7.5H47.75C50.375 7.5 52.5 9.625 52.5 12.25V25" stroke="#1D4ED8" stroke-width="3" stroke-linecap="round" stroke-linejoin="round"/>
<path d="M32.9474 19.9275C35.2649 22.245 35.2649 26.005 32.9474 28.325C30.6299 30.6425 26.8699 30.6425 24.5499 28.325C22.2324 26.0075 22.2324 22.2475 24.5499 19.9275C26.8699 17.6075 30.6299 17.6075 32.9474 19.9275" stroke="#1D4ED8" stroke-width="3" stroke-linecap="round" stroke-linejoin="round"/>
<path d="M45 52.5C39.4775 52.5 35 48.0225 35 42.5C35 36.9775 39.4775 32.5 45 32.5C50.525 32.5 55 36.9775 55 42.5C55 48.0225 50.525 52.5 45 52.5" stroke="#1D4ED8" stroke-width="3" stroke-linecap="round" stroke-linejoin="round"/>
<path d="M15 32.5H12.5" stroke="#1D4ED8" stroke-width="3" stroke-linecap="round" stroke-linejoin="round"/>
<path d="M45 15H42.5" stroke="#1D4ED8" stroke-width="3" stroke-linecap="round" stroke-linejoin="round"/>
<path d="M49.4449 40.2773L43.8899 45.8323L40.5549 42.4998" stroke="#1D4ED8" stroke-width="3" stroke-linecap="round" stroke-linejoin="round"/>
</svg>
