<svg width="60" height="60" viewBox="0 0 60 60" fill="none" xmlns="http://www.w3.org/2000/svg">
<path fill-rule="evenodd" clip-rule="evenodd" d="M24.8113 46.1862C23.9674 47.0314 22.8222 47.5066 21.6278 47.5073C20.4334 47.5079 19.2878 47.0339 18.443 46.1895L8.81009 36.5618C7.96533 35.7174 7.49072 34.572 7.49072 33.3777C7.49072 32.1833 7.96533 31.0379 8.81009 30.1936L25.0544 13.9568C25.9924 13.0193 27.2643 12.4927 28.5905 12.4927H37.5032C40.2658 12.4927 42.5053 14.7322 42.5053 17.4948V26.3947C42.5053 27.7199 41.9794 28.991 41.043 29.9289L24.8113 46.1862Z" stroke="#1D4ED8" stroke-width="3" stroke-linecap="round" stroke-linejoin="round"/>
<path d="M52.5096 19.9961V29.4935C52.5096 30.8202 51.9826 32.0925 51.0445 33.0305L36.8831 47.192" stroke="#1D4ED8" stroke-width="3" stroke-linecap="round" stroke-linejoin="round"/>
</svg>
