<svg width="61" height="60" viewBox="0 0 61 60" fill="none" xmlns="http://www.w3.org/2000/svg">
<path d="M38.2441 23.3549C38.2441 22.8374 37.8241 22.4199 37.3066 22.4199C36.7891 22.4224 36.3691 22.8424 36.3691 23.3599C36.3691 23.8774 36.7891 24.2974 37.3066 24.2949C37.8241 24.2949 38.2441 23.8749 38.2441 23.3574" stroke="#1D4ED8" stroke-width="3" stroke-linecap="round" stroke-linejoin="round"/>
<path fill-rule="evenodd" clip-rule="evenodd" d="M31.914 36.9619L29.339 39.5419H24.759V43.2144H21.0965V47.8044L17.6615 51.2494H9.4165V42.9869L23.724 28.6469C21.709 23.4119 22.789 17.2569 27.0015 13.0344C32.7015 7.32188 41.944 7.32188 47.644 13.0344C53.344 18.7469 53.344 28.0094 47.644 33.7244C43.389 37.9844 37.169 39.0594 31.914 36.9619Z" stroke="#1D4ED8" stroke-width="3" stroke-linecap="round" stroke-linejoin="round"/>
</svg>
