<svg width="80" height="80" viewBox="0 0 80 80" fill="none" xmlns="http://www.w3.org/2000/svg">
<path d="M46.0235 19.3624C48.2749 18.5179 50.628 17.8347 52.962 18.0714L53.0089 18.0762L53.0557 18.0782C55.1777 18.1534 57.2565 18.6883 59.1485 19.6446L59.5245 19.8419C61.0884 20.6901 62.4803 21.8149 63.6368 23.1563C61.9124 24.4477 60.4468 26.0576 59.3204 27.9014L59.0469 28.3653C57.6256 30.8667 56.8619 33.6887 56.8282 36.5655V36.588C56.8408 39.6352 57.6896 42.6165 59.2764 45.209L59.6036 45.7217C61.1552 48.0604 63.2695 49.9606 65.7422 51.2579C64.7772 53.9667 63.4945 56.5524 61.918 58.959L61.5518 59.5069C60.1049 61.6226 58.7272 63.5824 57.171 65.0372C55.7382 66.3765 54.2456 67.2001 52.5137 67.3262L52.1641 67.3419H51.8038C50.0412 67.3081 48.8328 66.7753 47.3262 66.1231C45.6767 65.4091 43.7662 64.6046 40.8282 64.6046C37.9093 64.6046 35.9713 65.3527 34.2901 66.0645C32.736 66.7226 31.5282 67.281 29.835 67.4092L29.4893 67.4288C27.7727 67.4916 26.1339 66.6425 24.4727 65.086C23.0165 63.7215 21.6807 61.943 20.3956 60.1124L19.8477 59.3262C17.0098 55.2222 14.4797 49.3755 13.4044 43.2891C12.3272 37.1916 12.7388 31.0336 15.545 26.1602L15.5499 26.1514L15.5547 26.1436C16.7765 23.9546 18.5118 22.0985 20.6085 20.7335L21.0323 20.4669C23.3192 19.0815 25.9269 18.3142 28.5997 18.2403C30.5094 18.2077 32.4323 18.8534 34.3692 19.6094C35.2981 19.972 36.2796 20.3798 37.1651 20.6807C38.0492 20.9812 39.0024 21.2364 39.9229 21.2364C40.8714 21.2364 41.9042 20.9235 42.8565 20.5821C43.7797 20.2511 44.987 19.7511 46.0235 19.3624ZM51.7764 1.65826C51.6636 4.73447 50.5203 7.70106 48.504 10.0665L48.4854 10.088L48.4678 10.1104C47.4577 11.3947 46.1828 12.4446 44.7315 13.1895L44.4385 13.334C43.2834 13.8855 42.0463 14.2351 40.7803 14.3731C40.823 13.2111 41.0216 12.0585 41.3721 10.9464L41.4737 10.6368C42.0391 8.98859 42.9306 7.47034 44.0948 6.17389L44.1085 6.15826C46.1167 3.85466 48.8133 2.28304 51.7764 1.65826Z" fill="#1D4ED8" stroke="#1D4ED8" stroke-width="2.85714"/>
<path fill-rule="evenodd" clip-rule="evenodd" d="M45.7141 34.2857C42.5582 34.2857 39.9998 36.8441 39.9998 40V74.2857C39.9998 77.4416 42.5582 80 45.7141 80H62.857C66.0129 80 68.5712 77.4416 68.5712 74.2857V40C68.5712 36.8441 66.0129 34.2857 62.857 34.2857H45.7141ZM48.5711 38.5712C48.5711 37.7822 49.2107 37.1426 49.9996 37.1426H58.5711C59.36 37.1426 59.9996 37.7822 59.9996 38.5712C59.9996 39.3602 59.36 39.9998 58.5711 39.9998H49.9996C49.2107 39.9998 48.5711 39.3602 48.5711 38.5712ZM45.7139 72.8569C45.7139 72.0679 46.3535 71.4284 47.1425 71.4284C47.9315 71.4284 48.5711 72.0679 48.5711 72.8569C48.5711 73.6459 47.9315 74.2855 47.1425 74.2855C46.3535 74.2855 45.7139 73.6459 45.7139 72.8569ZM61.4282 71.4284C60.6392 71.4284 59.9996 72.0679 59.9996 72.8569C59.9996 73.6459 60.6392 74.2855 61.4282 74.2855C62.2172 74.2855 62.8568 73.6459 62.8568 72.8569C62.8568 72.0679 62.2172 71.4284 61.4282 71.4284Z" fill="#5DFDCB"/>
<path fill-rule="evenodd" clip-rule="evenodd" d="M45.7141 34.2857C42.5582 34.2857 39.9998 36.8441 39.9998 40V74.2857C39.9998 77.4416 42.5582 80 45.7141 80H62.857C66.0129 80 68.5712 77.4416 68.5712 74.2857V40C68.5712 36.8441 66.0129 34.2857 62.857 34.2857H45.7141ZM48.5711 38.5712C48.5711 37.7822 49.2107 37.1426 49.9996 37.1426H58.5711C59.36 37.1426 59.9996 37.7822 59.9996 38.5712C59.9996 39.3602 59.36 39.9998 58.5711 39.9998H49.9996C49.2107 39.9998 48.5711 39.3602 48.5711 38.5712ZM45.7139 72.8569C45.7139 72.0679 46.3535 71.4284 47.1425 71.4284C47.9315 71.4284 48.5711 72.0679 48.5711 72.8569C48.5711 73.6459 47.9315 74.2855 47.1425 74.2855C46.3535 74.2855 45.7139 73.6459 45.7139 72.8569ZM61.4282 71.4284C60.6392 71.4284 59.9996 72.0679 59.9996 72.8569C59.9996 73.6459 60.6392 74.2855 61.4282 74.2855C62.2172 74.2855 62.8568 73.6459 62.8568 72.8569C62.8568 72.0679 62.2172 71.4284 61.4282 71.4284Z" fill="#5DFDCB"/>
<path fill-rule="evenodd" clip-rule="evenodd" d="M58.4536 34.2857C58.3316 35.0425 58.2653 35.8097 58.2562 36.5813C58.257 36.7687 58.2612 36.9559 58.2689 37.1426H49.9996C49.2107 37.1426 48.5711 37.7822 48.5711 38.5712C48.5711 39.3602 49.2107 39.9998 49.9996 39.9998H58.5711C58.6006 39.9998 58.6299 39.9989 58.659 39.9971C59.0699 41.7468 59.7895 43.4189 60.7932 44.9317C62.4359 47.4078 64.7677 49.3487 67.5006 50.5151C66.3939 53.9939 64.7876 57.2935 62.7321 60.3104C59.8641 64.504 56.8859 68.6838 52.1897 68.7698C49.9396 68.8119 48.4345 68.1598 46.8692 67.4817C45.2298 66.7715 43.5244 66.0327 40.8278 66.0327C40.5414 66.0327 40.2658 66.0405 39.9998 66.0553V40C39.9998 36.8441 42.5582 34.2857 45.7141 34.2857H58.4536Z" fill="white"/>
</svg>
