<svg width="69" height="80" viewBox="0 0 69 80" fill="none" xmlns="http://www.w3.org/2000/svg">
<g clip-path="url(#clip0_54_10608)">
<path d="M6.22668 68.4935C4.51434 68.4935 3.04848 67.8838 1.82909 66.6644C0.609696 65.445 0 63.9791 0 62.2668V6.22668C0 4.51434 0.609696 3.04848 1.82909 1.82909C3.04848 0.609696 4.51434 0 6.22668 0H37.3601C39.0724 0 40.5383 0.609696 41.7577 1.82909C42.9771 3.04848 43.5868 4.51434 43.5868 6.22668V62.2668C43.5868 63.9791 42.9771 65.445 41.7577 66.6644C40.5383 67.8838 39.0724 68.4935 37.3601 68.4935H6.22668ZM21.7934 60.7101C22.6755 60.7101 23.4149 60.4118 24.0116 59.815C24.6084 59.2183 24.9067 58.4789 24.9067 57.5968C24.9067 56.7147 24.6084 55.9752 24.0116 55.3785C23.4149 54.7818 22.6755 54.4834 21.7934 54.4834C20.9113 54.4834 20.1718 54.7818 19.5751 55.3785C18.9784 55.9752 18.68 56.7147 18.68 57.5968C18.68 58.4789 18.9784 59.2183 19.5751 59.815C20.1718 60.4118 20.9113 60.7101 21.7934 60.7101Z" fill="#1D4ED8"/>
<path d="M56.8273 48.6966C55.3865 49.5436 54.9047 51.3987 55.7517 52.8396L56.6215 54.326L56.6049 54.3321L53.7538 49.4823C52.9068 48.0414 51.0517 47.5597 49.6108 48.4066C48.17 49.2536 47.6882 51.1088 48.5352 52.5496L50.7451 56.3081L47.1662 50.2399C46.3192 48.7991 44.4649 48.3173 43.0241 49.1652C41.585 50.0104 41.1032 51.8603 41.945 53.3003L36.313 43.7197C35.4651 42.2789 33.6108 41.7971 32.17 42.6441C30.7283 43.4911 30.2474 45.3463 31.0944 46.7871L41.6279 64.7045L36.4163 60.5054C35.0228 59.5813 33.1449 59.9623 32.2208 61.3559C31.2976 62.7486 31.6786 64.6265 33.0713 65.5506C33.0713 65.5506 41.5097 72.3791 42.3873 73.0202C47.2161 76.5431 50.8371 78.8581 53.0075 79.6166C54.1234 80.0064 55.6361 80.2192 56.6749 79.6586L67.0263 73.6053C68.1273 73.0106 68.637 71.0801 68.4584 69.8416C68.0493 67.0107 67.5737 64.3453 66.3422 60.4853C65.9953 59.3983 64.4108 56.1014 63.866 55.0994L60.9703 49.7722C60.1233 48.3313 58.2682 47.8496 56.8273 48.6966Z" fill="#5DFDCB"/>
<path d="M30.8543 55.0084C30.8044 55.0084 30.7527 55.0023 30.7019 54.9892C29.3776 54.6414 28.1531 54.052 27.0608 53.2365C25.93 52.3913 24.9928 51.3402 24.2746 50.1113C23.5564 48.8833 23.1 47.5511 22.9187 46.1505C22.7435 44.799 22.8311 43.4422 23.178 42.1179C23.5248 40.7935 24.1152 39.569 24.9306 38.4768C25.7759 37.346 26.827 36.4088 28.055 35.6906C29.2839 34.9723 30.6161 34.516 32.0158 34.3347C33.3682 34.1595 34.7249 34.2471 36.0493 34.5939C37.3727 34.9417 38.5981 35.5311 39.6904 36.3466C40.8212 37.1918 41.7584 38.2429 42.4766 39.4709C43.1948 40.6998 43.6503 42.032 43.8325 43.4326C43.8737 43.7541 43.6468 44.0492 43.3245 44.0904C43.003 44.1324 42.7078 43.9056 42.6658 43.5833C42.5055 42.3404 42.1 41.1561 41.4614 40.0648C40.8238 38.9725 39.9908 38.0388 38.9862 37.2882C38.0165 36.5638 36.9278 36.04 35.7506 35.7317C34.5743 35.4225 33.3682 35.3454 32.1673 35.5005C30.9244 35.6616 29.7402 36.0672 28.6488 36.7057C27.5566 37.3434 26.6229 38.1764 25.8722 39.1801C25.1479 40.1506 24.6241 41.2394 24.3149 42.4157C24.0066 43.5929 23.9295 44.799 24.0845 45.9998C24.2457 47.2427 24.6512 48.427 25.2889 49.5183C25.9274 50.6106 26.7604 51.5443 27.7642 52.294C28.7347 53.0193 29.8234 53.5431 30.9997 53.8514C31.3142 53.9337 31.5016 54.2552 31.4193 54.5696C31.351 54.8324 31.1145 55.0067 30.8543 55.0084Z" fill="#5DFDCB"/>
<path d="M29.6218 50.0281C29.4983 50.0281 29.374 49.9904 29.2671 49.9107C28.5532 49.3773 27.962 48.7142 27.5083 47.939C27.0555 47.1639 26.7682 46.323 26.6534 45.4392C26.5431 44.5861 26.5974 43.7295 26.8172 42.8939C27.0362 42.0583 27.4084 41.2857 27.9226 40.5964C28.456 39.8826 29.1199 39.2904 29.8951 38.8376C30.6703 38.3848 31.5111 38.0966 32.3949 37.9819C33.248 37.8715 34.1038 37.9267 34.9394 38.1456C35.775 38.3646 36.5484 38.7369 37.2377 39.2519C37.9516 39.7853 38.5428 40.4484 38.9965 41.2235C39.4494 41.9987 39.7376 42.8405 39.8514 43.7234C39.8935 44.0457 39.6666 44.34 39.3443 44.382C39.0228 44.4241 38.7276 44.1963 38.6856 43.8749C38.5919 43.1479 38.3545 42.4559 37.9814 41.8174C37.6083 41.1789 37.1213 40.6323 36.5335 40.1935C35.9668 39.7696 35.33 39.463 34.6416 39.2826C33.9531 39.1021 33.248 39.0566 32.5456 39.1477C31.8195 39.2423 31.1266 39.4788 30.4881 39.8528C29.8496 40.2259 29.303 40.7129 28.8651 41.2998C28.4411 41.8673 28.1346 42.5041 27.9541 43.1926C27.7737 43.8801 27.7281 44.5852 27.8192 45.2877C27.9138 46.0147 28.1503 46.7075 28.5235 47.3452C28.8975 47.9846 29.3836 48.5303 29.9713 48.9691C30.2315 49.1635 30.284 49.5314 30.0904 49.7916C29.9757 49.9448 29.7996 50.0272 29.6218 50.0281Z" fill="#5DFDCB"/>
<path fill-rule="evenodd" clip-rule="evenodd" d="M43.5865 48.9069V62.267C43.5865 63.9794 42.9768 65.4452 41.7575 66.6646C40.5381 67.884 39.0722 68.4937 37.3599 68.4937H36.716C34.7663 66.9222 33.0713 65.5506 33.0713 65.5506C31.6786 64.6265 31.2976 62.7486 32.2208 61.3559C33.1449 59.9623 35.0228 59.5813 36.4163 60.5054L41.6279 64.7045L31.0944 46.7871C30.2474 45.3463 30.7283 43.4911 32.17 42.6441C33.6108 41.7971 35.4651 42.2789 36.313 43.7197L41.945 53.3003C41.1032 51.8603 41.585 50.0104 43.0241 49.1652C43.2059 49.0582 43.3944 48.9723 43.5865 48.9069ZM43.5865 42.1584V43.9892C43.5112 44.0421 43.4222 44.0779 43.3245 44.0904C43.003 44.1324 42.7078 43.9056 42.6658 43.5833C42.5055 42.3404 42.1 41.1561 41.4614 40.0648C40.8238 38.9725 39.9908 38.0388 38.9862 37.2882C38.0165 36.5638 36.9278 36.04 35.7506 35.7317C34.5743 35.4225 33.3682 35.3454 32.1673 35.5005C30.9244 35.6616 29.7402 36.0672 28.6488 36.7057C27.5566 37.3434 26.6229 38.1764 25.8722 39.1801C25.1479 40.1506 24.6241 41.2394 24.3149 42.4157C24.0066 43.5929 23.9295 44.799 24.0845 45.9998C24.2457 47.2427 24.6512 48.427 25.2889 49.5183C25.9274 50.6106 26.7604 51.5443 27.7642 52.294C28.7347 53.0193 29.8234 53.5431 30.9997 53.8514C31.3142 53.9337 31.5016 54.2552 31.4193 54.5696C31.351 54.8324 31.1145 55.0067 30.8543 55.0084C30.8044 55.0084 30.7527 55.0023 30.7019 54.9892C29.3776 54.6414 28.1531 54.052 27.0608 53.2365C25.93 52.3913 24.9928 51.3402 24.2746 50.1113C23.5564 48.8833 23.1 47.5511 22.9187 46.1505C22.7435 44.799 22.8311 43.4422 23.178 42.1179C23.5248 40.7935 24.1152 39.569 24.9306 38.4768C25.7759 37.346 26.827 36.4088 28.055 35.6906C29.2839 34.9723 30.6161 34.516 32.0158 34.3347C33.3682 34.1595 34.7249 34.2471 36.0493 34.5939C37.3727 34.9417 38.5981 35.5311 39.6904 36.3466C40.8212 37.1918 41.7584 38.2429 42.4766 39.4709C42.9735 40.3211 43.3447 41.2208 43.5865 42.1584ZM29.2671 49.9107C29.374 49.9904 29.4983 50.0281 29.6218 50.0281C29.7996 50.0272 29.9757 49.9448 30.0904 49.7916C30.284 49.5314 30.2315 49.1635 29.9713 48.9691C29.3836 48.5303 28.8975 47.9846 28.5235 47.3452C28.1503 46.7075 27.9138 46.0147 27.8192 45.2877C27.7281 44.5852 27.7737 43.8801 27.9541 43.1926C28.1346 42.5041 28.4411 41.8673 28.8651 41.2998C29.303 40.7129 29.8496 40.2259 30.4881 39.8528C31.1266 39.4788 31.8195 39.2423 32.5456 39.1477C33.248 39.0566 33.9531 39.1021 34.6416 39.2826C35.33 39.463 35.9668 39.7696 36.5335 40.1935C37.1213 40.6323 37.6083 41.1789 37.9814 41.8174C38.3545 42.4559 38.5919 43.1479 38.6856 43.8749C38.7276 44.1963 39.0228 44.4241 39.3443 44.382C39.6666 44.34 39.8935 44.0457 39.8514 43.7234C39.7376 42.8405 39.4494 41.9987 38.9965 41.2235C38.5428 40.4484 37.9516 39.7853 37.2377 39.2519C36.5484 38.7369 35.775 38.3646 34.9394 38.1456C34.1038 37.9267 33.248 37.8715 32.3949 37.9819C31.5111 38.0966 30.6703 38.3848 29.8951 38.8376C29.1199 39.2904 28.456 39.8826 27.9226 40.5964C27.4084 41.2857 27.0362 42.0583 26.8172 42.8939C26.5974 43.7295 26.5431 44.5861 26.6534 45.4392C26.7682 46.323 27.0555 47.1639 27.5083 47.939C27.962 48.7142 28.5532 49.3773 29.2671 49.9107Z" fill="white"/>
</g>
<defs>
<clipPath id="clip0_54_10608">
<rect width="68.4935" height="80" fill="white"/>
</clipPath>
</defs>
</svg>
