<svg width="80" height="80" viewBox="0 0 80 80" fill="none" xmlns="http://www.w3.org/2000/svg">
<g clip-path="url(#clip0_80_3415)">
<path fill-rule="evenodd" clip-rule="evenodd" d="M-0.273438 23.4321V67.3672C-0.273438 68.9848 1.03793 70.2962 2.65557 70.2962H67.0938C68.7114 70.2962 70.0228 68.9848 70.0228 67.3672V23.4321H-0.273438Z" fill="#F9F9F9"/>
<path fill-rule="evenodd" clip-rule="evenodd" d="M70.0228 23.4321V2.92901C70.0228 1.31136 68.7114 0 67.0937 0H2.65557C1.03792 0 -0.273438 1.31136 -0.273438 2.92901V23.4321H5.58458H64.1647H70.0228Z" fill="#F9F9F9"/>
<path d="M11.4424 8.78704C11.4424 10.4047 10.131 11.716 8.51336 11.716C6.89571 11.716 5.58435 10.4047 5.58435 8.78704C5.58435 7.16939 6.89571 5.85803 8.51336 5.85803C10.131 5.85803 11.4424 7.16939 11.4424 8.78704Z" fill="#1D4ED8"/>
<path d="M20.2294 8.78704C20.2294 10.4047 18.918 11.716 17.3004 11.716C15.6827 11.716 14.3714 10.4047 14.3714 8.78704C14.3714 7.16939 15.6827 5.85803 17.3004 5.85803C18.918 5.85803 20.2294 7.16939 20.2294 8.78704Z" fill="#1D4ED8"/>
<path d="M29.0164 8.78704C29.0164 10.4047 27.7051 11.716 26.0874 11.716C24.4698 11.716 23.1584 10.4047 23.1584 8.78704C23.1584 7.16939 24.4698 5.85803 26.0874 5.85803C27.7051 5.85803 29.0164 7.16939 29.0164 8.78704Z" fill="#1D4ED8"/>
<path d="M66.1941 49.7932C64.649 42.6171 61.3539 38.0771 58.3062 38.0771C55.2586 38.0771 51.9635 42.6171 50.4184 49.7932H66.1941Z" fill="#5DFDCB"/>
<path d="M49.5196 58.5802C49.5192 60.5394 49.6498 62.4964 49.9106 64.4382H66.7026C66.9633 62.4964 67.094 60.5394 67.0936 58.5802C67.094 56.621 66.9633 54.664 66.7026 52.7222H49.9106C49.6498 54.664 49.5192 56.621 49.5196 58.5802Z" fill="#5DFDCB"/>
<path d="M50.4184 67.3672C51.9635 74.5433 55.2586 79.0833 58.3062 79.0833C61.3539 79.0833 64.649 74.5433 66.1941 67.3672H50.4184Z" fill="#5DFDCB"/>
<path d="M69.1939 49.7932H78.4203C77.034 46.6383 74.9277 43.8522 72.2702 41.6584C69.6127 39.4645 66.4781 37.924 63.1177 37.1604C65.8959 39.6047 68.0751 44.1241 69.1939 49.7932Z" fill="#5DFDCB"/>
<path d="M79.473 52.7222H69.6608C69.9024 54.6655 70.0232 56.6219 70.0225 58.5802C70.0227 60.5385 69.9014 62.4949 69.6594 64.4382H79.4715C80.5395 60.6059 80.541 56.5545 79.473 52.7222Z" fill="#5DFDCB"/>
<path d="M63.1177 80C66.4786 79.2368 69.6138 77.6965 72.2718 75.5026C74.9299 73.3088 77.0367 70.5225 78.4232 67.3672H69.1969C68.0751 73.0363 65.8959 77.5558 63.1177 80Z" fill="#5DFDCB"/>
<path d="M47.4196 67.3672H38.1933C39.5798 70.5225 41.6866 73.3088 44.3447 75.5026C47.0027 77.6965 50.1379 79.2368 53.4988 80C50.7177 77.5558 48.5385 73.0363 47.4196 67.3672Z" fill="#5DFDCB"/>
<path d="M53.4959 37.1604C50.135 37.9236 46.9998 39.4639 44.3418 41.6578C41.6838 43.8517 39.577 46.638 38.1904 49.7932H47.4168C48.5386 44.1241 50.7178 39.6047 53.4959 37.1604Z" fill="#5DFDCB"/>
<path d="M46.5904 58.5802C46.5903 56.6219 46.7116 54.6655 46.9536 52.7222H37.1415C36.0734 56.5545 36.0734 60.6059 37.1415 64.4382H46.9536C46.7116 62.4949 46.5903 60.5385 46.5904 58.5802Z" fill="#5DFDCB"/>
<path d="M47.4197 67.3674C47.62 68.3824 47.8552 69.3602 48.1209 70.2961H39.7547C39.1635 69.363 38.6402 68.3848 38.1932 67.3674H47.4197ZM66.1941 67.3674C65.9717 68.4003 65.7116 69.3781 65.4226 70.2961H51.1902C50.9013 69.3781 50.6411 68.4003 50.4187 67.3674H66.1941ZM70.0232 67.3674C70.0231 68.4279 69.4571 69.3535 68.6131 69.8674C68.8306 69.0627 69.0267 68.2285 69.1971 67.3674H70.0232ZM46.9539 52.7219C46.7118 54.6652 46.5904 56.622 46.5906 58.5803C46.5904 60.5384 46.7119 62.4947 46.9539 64.4377H37.1414C36.0735 60.6056 36.0734 56.5541 37.1414 52.7219H46.9539ZM66.7029 52.7219C66.9637 54.6637 67.0939 56.6211 67.0935 58.5803C67.0939 60.5393 66.9636 62.4962 66.7029 64.4377H49.9109C49.6502 62.4962 49.519 60.5393 49.5193 58.5803C49.519 56.6211 49.6502 54.6637 49.9109 52.7219H66.7029ZM70.0232 64.4377H69.66C69.902 62.4947 70.0224 60.5384 70.0223 58.5803C70.0229 56.622 69.9025 54.6652 69.6609 52.7219H70.0232V64.4377ZM53.4959 37.1604C50.7178 39.6047 48.5386 44.1242 47.4168 49.7932H38.1902C39.5768 46.638 41.6836 43.8513 44.3416 41.6575C46.9996 39.4636 50.1351 37.9236 53.4959 37.1604ZM58.3064 38.0774C61.3541 38.0774 64.6491 42.6172 66.1941 49.7932H50.4187C51.9638 42.6171 55.2588 38.0774 58.3064 38.0774ZM63.118 37.1604C65.5732 37.7183 67.9071 38.6923 70.0232 40.0315V49.7932H69.1941C68.0753 44.1242 65.8961 39.6047 63.118 37.1604Z" fill="#1D4ED8"/>
</g>
<defs>
<clipPath id="clip0_80_3415">
<rect width="80" height="80" fill="white"/>
</clipPath>
</defs>
</svg>
